<svg width="120" height="16" viewBox="0 0 120 16" fill="none" xmlns="http://www.w3.org/2000/svg">
<path d="M0 15.3757V0.624789H9.06126V1.88915H1.26436V7.36806H8.63981V8.63242H1.26436V15.3757H0Z" fill="black"/>
<path d="M12.1209 15.3757V0.624789H18.232C19.4964 0.624789 20.5289 1.03922 21.3297 1.86808C22.1445 2.68289 22.5519 3.74355 22.5519 5.05006C22.5519 6.39871 22.1375 7.49449 21.3086 8.3374C20.4938 9.16626 19.4683 9.58069 18.232 9.58069H16.7569L22.868 15.3757H21.1822L15.0711 9.58069H13.3853V15.3757H12.1209ZM13.3853 8.31633H18.232C19.1452 8.31633 19.8827 8.02131 20.4446 7.43127C21.0066 6.84124 21.2875 6.0475 21.2875 5.05006C21.2875 4.09476 20.9996 3.32912 20.4236 2.75313C19.8616 2.17715 19.1311 1.88915 18.232 1.88915H13.3853V8.31633Z" fill="black"/>
<path d="M26.9462 2.54241C28.2808 1.12351 29.9386 0.414062 31.9194 0.414062C33.9002 0.414062 35.5509 1.12351 36.8715 2.54241C38.2061 3.94725 38.8734 5.76653 38.8734 8.00024C38.8734 10.2339 38.2061 12.0602 36.8715 13.4791C35.5509 14.884 33.9002 15.5864 31.9194 15.5864C29.9386 15.5864 28.2808 14.884 26.9462 13.4791C25.6257 12.0602 24.9654 10.2339 24.9654 8.00024C24.9654 5.76653 25.6257 3.94725 26.9462 2.54241ZM27.8524 12.573C28.9481 13.739 30.3038 14.3221 31.9194 14.3221C33.535 14.3221 34.8836 13.739 35.9653 12.573C37.0611 11.3929 37.609 9.86868 37.609 8.00024C37.609 6.13179 37.0611 4.61456 35.9653 3.44853C34.8836 2.26846 33.535 1.67842 31.9194 1.67842C30.3038 1.67842 28.9481 2.26846 27.8524 3.44853C26.7706 4.61456 26.2298 6.13179 26.2298 8.00024C26.2298 9.86868 26.7706 11.3929 27.8524 12.573Z" fill="black"/>
<path d="M41.919 15.3757V0.624789H44.3424L49.2945 14.1113H49.7159L54.668 0.624789H57.0914V15.3757H55.827V2.20524H55.4056L50.5589 15.3757H48.4516L43.6049 2.20524H43.1834V15.3757H41.919Z" fill="black"/>
<path d="M60.5766 15.3757V0.624789H70.3754V3.15351H63.3161V6.73587H69.8486V9.2646H63.3161V15.3757H60.5766Z" fill="black"/>
<path d="M75.8423 11.6037C76.6712 12.5028 77.7318 12.9523 79.0243 12.9523C80.3167 12.9523 81.3774 12.5028 82.2063 11.6037C83.0351 10.6905 83.4496 9.48938 83.4496 8.00024C83.4496 6.5111 83.0351 5.31698 82.2063 4.41788C81.3774 3.50473 80.3167 3.04815 79.0243 3.04815C77.7318 3.04815 76.6712 3.50473 75.8423 4.41788C75.0135 5.31698 74.599 6.5111 74.599 8.00024C74.599 9.48938 75.0135 10.6905 75.8423 11.6037ZM73.9247 2.56348C75.3014 1.13053 77.0013 0.414062 79.0243 0.414062C81.0473 0.414062 82.7471 1.13053 84.1239 2.56348C85.5006 3.99642 86.189 5.80868 86.189 8.00024C86.189 10.1918 85.5006 12.0041 84.1239 13.437C82.7471 14.8699 81.0473 15.5864 79.0243 15.5864C77.0013 15.5864 75.3014 14.8699 73.9247 13.437C72.5479 12.0041 71.8596 10.1918 71.8596 8.00024C71.8596 5.80868 72.5479 3.99642 73.9247 2.56348Z" fill="black"/>
<path d="M88.7079 15.3757V0.624789H91.4473V12.7416H98.4013V15.3757H88.7079Z" fill="black"/>
<path d="M100.397 15.3757V0.624789H103.136V15.3757H100.397Z" fill="black"/>
<path d="M109.653 11.6037C110.482 12.5028 111.543 12.9523 112.835 12.9523C114.128 12.9523 115.188 12.5028 116.017 11.6037C116.846 10.6905 117.261 9.48938 117.261 8.00024C117.261 6.5111 116.846 5.31698 116.017 4.41788C115.188 3.50473 114.128 3.04815 112.835 3.04815C111.543 3.04815 110.482 3.50473 109.653 4.41788C108.824 5.31698 108.41 6.5111 108.41 8.00024C108.41 9.48938 108.824 10.6905 109.653 11.6037ZM107.736 2.56348C109.112 1.13053 110.812 0.414062 112.835 0.414062C114.858 0.414062 116.558 1.13053 117.935 2.56348C119.312 3.99642 120 5.80868 120 8.00024C120 10.1918 119.312 12.0041 117.935 13.437C116.558 14.8699 114.858 15.5864 112.835 15.5864C110.812 15.5864 109.112 14.8699 107.736 13.437C106.359 12.0041 105.671 10.1918 105.671 8.00024C105.671 5.80868 106.359 3.99642 107.736 2.56348Z" fill="black"/>
</svg>
