<?xml version="1.0" encoding="UTF-8"?>
<svg id="Layer_1" data-name="Layer 1" xmlns="http://www.w3.org/2000/svg" viewBox="0 0 118.7 14.53">
  <defs>
    <style>
      .cls-1 {
        fill: #000;
        stroke-width: 0px;
      }
    </style>
  </defs>
  <polygon class="cls-1" points="9.16 .28 9.16 .97 .73 .97 .73 7.67 8.07 7.67 8.07 8.36 .73 8.36 .73 14.25 0 14.25 0 .28 9.16 .28"/>
  <path class="cls-1" d="M17.7,9.33c-.36.04-.71.06-1.11.06h-4.18v4.86h-.75V.28h5.19c3.29,0,4.99,1.55,4.99,4.46,0,2.4-1.19,3.92-3.35,4.44l3.73,5.07h-.93l-3.59-4.91ZM21.05,4.74c0-2.46-1.43-3.77-4.26-3.77h-4.38v7.73h4.16c2.89,0,4.48-1.39,4.48-3.96"/>
  <path class="cls-1" d="M24.08,7.27C24.08,3.13,26.88.14,31.41.14c4.26,0,7.35,2.7,7.35,7.13,0,4.14-2.79,7.11-7.35,7.11-4.26,0-7.33-2.7-7.33-7.11M37.97,7.27c0-3.73-2.5-6.4-6.56-6.4-3.8,0-6.56,2.44-6.56,6.4,0,3.71,2.5,6.38,6.56,6.38,3.82,0,6.56-2.42,6.56-6.38"/>
  <polygon class="cls-1" points="55.22 14.25 54.48 14.25 54.48 2.04 48.64 11.55 48.26 11.55 42.42 2.04 42.42 14.25 41.68 14.25 41.68 .28 42.18 .28 48.46 10.52 54.72 .28 55.22 .28 55.22 14.25"/>
  <polygon class="cls-1" points="68.62 .28 68.62 2.7 61.13 2.7 61.13 6.94 67.53 6.94 67.53 9.35 61.13 9.35 61.13 14.25 58.39 14.25 58.39 .28 68.62 .28"/>
  <path class="cls-1" d="M69.77,7.27c0-4.26,2.85-7.27,7.41-7.27s7.43,2.89,7.43,7.27-2.87,7.25-7.43,7.25-7.41-2.87-7.41-7.25M81.7,7.27c0-2.71-1.74-4.66-4.52-4.66s-4.5,1.82-4.5,4.66,1.74,4.64,4.5,4.64,4.52-1.82,4.52-4.64"/>
  <polygon class="cls-1" points="89.61 .28 89.61 11.73 97.02 11.73 97.02 14.25 86.79 14.25 86.79 .28 89.61 .28"/>
  <rect class="cls-1" x="98.71" y=".28" width="2.85" height="13.97"/>
  <path class="cls-1" d="M103.86,7.27c0-4.26,2.85-7.27,7.41-7.27s7.43,2.89,7.43,7.27-2.87,7.25-7.43,7.25-7.41-2.87-7.41-7.25M115.79,7.27c0-2.71-1.74-4.66-4.52-4.66s-4.5,1.82-4.5,4.66,1.74,4.64,4.5,4.64,4.52-1.82,4.52-4.64"/>
</svg>