<?xml version="1.0" encoding="UTF-8"?>
<svg id="Layer_1" data-name="Layer 1" xmlns="http://www.w3.org/2000/svg" viewBox="0 0 48 48">
  <defs>
    <style>
      .cls-1 {
        fill: #000;
        stroke-width: 0px;
      }
    </style>
  </defs>
  <polygon class="cls-1" points="9.38 21.96 9.38 22.17 6.92 22.17 6.92 24.12 9.06 24.12 9.06 24.32 6.92 24.32 6.92 26.04 6.71 26.04 6.71 21.96 9.38 21.96"/>
  <path class="cls-1" d="M11.87,24.6c-.1.01-.21.02-.32.02h-1.22v1.41h-.22v-4.07h1.51c.96,0,1.45.45,1.45,1.3,0,.7-.35,1.14-.98,1.29l1.09,1.48h-.27l-1.04-1.43ZM12.84,23.26c0-.72-.42-1.1-1.24-1.1h-1.28v2.25h1.21c.84,0,1.3-.4,1.3-1.15"/>
  <path class="cls-1" d="M13.72,24c0-1.21.81-2.08,2.14-2.08,1.24,0,2.14.79,2.14,2.08,0,1.21-.81,2.07-2.14,2.07-1.24,0-2.14-.79-2.14-2.07M17.77,24c0-1.09-.73-1.86-1.91-1.86-1.11,0-1.91.71-1.91,1.86,0,1.08.73,1.86,1.91,1.86,1.11,0,1.91-.7,1.91-1.86"/>
  <polygon class="cls-1" points="22.8 26.04 22.58 26.04 22.58 22.48 20.88 25.25 20.77 25.25 19.07 22.48 19.07 26.04 18.85 26.04 18.85 21.96 19 21.96 20.83 24.95 22.65 21.96 22.8 21.96 22.8 26.04"/>
  <polygon class="cls-1" points="26.7 21.96 26.7 22.67 24.52 22.67 24.52 23.9 26.38 23.9 26.38 24.61 24.52 24.61 24.52 26.04 23.72 26.04 23.72 21.96 26.7 21.96"/>
  <path class="cls-1" d="M27.03,24c0-1.24.83-2.12,2.16-2.12s2.17.84,2.17,2.12-.84,2.11-2.17,2.11-2.16-.84-2.16-2.11M30.51,24c0-.79-.51-1.36-1.32-1.36s-1.31.53-1.31,1.36.51,1.35,1.31,1.35,1.32-.53,1.32-1.35"/>
  <polygon class="cls-1" points="32.81 21.96 32.81 25.3 34.97 25.3 34.97 26.04 32 26.04 32 21.96 32.81 21.96"/>
  <rect class="cls-1" x="35.47" y="21.96" width=".83" height="4.07"/>
  <path class="cls-1" d="M36.97,24c0-1.24.83-2.12,2.16-2.12s2.17.84,2.17,2.12-.84,2.11-2.17,2.11-2.16-.84-2.16-2.11M40.44,24c0-.79-.51-1.36-1.32-1.36s-1.31.53-1.31,1.36.51,1.35,1.31,1.35,1.32-.53,1.32-1.35"/>
</svg>