<svg width="24" height="24" viewBox="0 0 24 24" fill="none" xmlns="http://www.w3.org/2000/svg">
<path d="M19.5306 5.53033C19.8235 5.23744 19.8235 4.76256 19.5306 4.46967C19.2377 4.17678 18.7628 4.17678 18.4699 4.46967L12.0002 10.9393L5.53057 4.46967C5.23768 4.17678 4.76281 4.17678 4.46991 4.46967C4.17702 4.76256 4.17702 5.23744 4.46991 5.53033L10.9396 12L4.46991 18.4697C4.17702 18.7626 4.17702 19.2374 4.46991 19.5303C4.76281 19.8232 5.23768 19.8232 5.53057 19.5303L12.0002 13.0607L18.4699 19.5303C18.7628 19.8232 19.2377 19.8232 19.5306 19.5303C19.8235 19.2374 19.8235 18.7626 19.5306 18.4697L13.0609 12L19.5306 5.53033Z" fill="#256600" style="mix-blend-mode:plus-darker"/>
</svg>
